<?xml version="1.0" ?><svg viewBox="0 0 64 64" xmlns="http://www.w3.org/2000/svg"><defs><style>.cls-1{fill:#89a42a;}.cls-2{fill:#c5e260;}.cls-3{fill:#d6c3df;}.cls-4{fill:#fb7e2d;}.cls-5{fill:#fc9857;}.cls-6{fill:#7d5d3e;}.cls-7{fill:#a67c52;}.cls-8{fill:#b6db38;}.cls-9{fill:#5b6e1c;}.cls-10{fill:#bc5f22;}.cls-11{fill:#a192a7;}</style></defs><title/><g data-name="Layer 9" id="Layer_9"><path class="cls-1" d="M49,12a1,1,0,0,1-1-1v-.76a9.14,9.14,0,0,0-2.71-6.53l1.42-1.42A11.25,11.25,0,0,1,49,5.59a11.25,11.25,0,0,1,2.29-3.3l1.42,1.42A9.14,9.14,0,0,0,50,10.24V11A1,1,0,0,1,49,12Z"/><rect class="cls-1" height="4.24" transform="translate(-1.04 19.49) rotate(-45)" width="7.07" x="19.46" y="8.88"/><rect class="cls-1" height="7.07" transform="translate(-3.38 13.83) rotate(-45)" width="4.24" x="12.88" y="7.46"/><polyline class="cls-2" points="17 14 17 5 21 5 21 14"/><path class="cls-2" d="M44,22V19.54h0a4.13,4.13,0,0,0-1.11-.43A4,4,0,0,0,39,16a4.75,4.75,0,0,0-.53.05,4,4,0,0,0-6.94,0A4.75,4.75,0,0,0,31,16a4,4,0,0,0-3.46,2h-.48A8.92,8.92,0,0,1,28,22Z"/><path class="cls-3" d="M10,22a9,9,0,0,1,18,0"/><path class="cls-4" d="M49,10h0a5,5,0,0,1,5,5v7a0,0,0,0,1,0,0H44a0,0,0,0,1,0,0V15A5,5,0,0,1,49,10Z"/><path class="cls-5" d="M47.5,10.25A5,5,0,0,0,44,15v7h7V15A5,5,0,0,0,47.5,10.25Z"/><rect class="cls-6" height="24" width="48" x="8" y="22"/><rect class="cls-7" height="24" width="45" x="8" y="22"/><rect class="cls-8" height="4" width="16" x="24" y="26"/><rect class="cls-2" height="4" width="13" x="24" y="26"/><rect class="cls-6" height="4" width="60" x="2" y="58"/><rect class="cls-7" height="4" width="57" x="2" y="58"/><path class="cls-9" d="M47.11,46.4l.52,1.79A35.75,35.75,0,0,1,49,58h4a35.75,35.75,0,0,1,1.37-9.81l.52-1.79h0l-.13-.09a4,4,0,0,1-7.52,0Z"/><path class="cls-9" d="M27.23,46.4l.51,1.79A35.75,35.75,0,0,1,29.11,58h4a35.76,35.76,0,0,1,1.38-9.81L35,46.4h0l-.13-.09a4,4,0,0,1-7.52,0Z"/><path class="cls-9" d="M7.23,46.4l.51,1.79A35.75,35.75,0,0,1,9.11,58h4a35.76,35.76,0,0,1,1.38-9.81L15,46.4h0l-.13-.09a4,4,0,0,1-7.52,0Z"/><path class="cls-8" d="M58,39.14s0-.09,0-.14a3,3,0,0,0-4.12-2.78,3,3,0,0,0-5.76,0A3,3,0,0,0,44,39s0,.09,0,.14A4,4,0,0,0,45,47a3.93,3.93,0,0,0,2.24-.69,4,4,0,0,0,7.52,0A3.93,3.93,0,0,0,57,47a4,4,0,0,0,1-7.86Z"/><path class="cls-2" d="M46.25,36.11a1.7,1.7,0,0,0-.32.1l-.23.1-.24.13-.24.16a.53.53,0,0,0-.14.12,2.92,2.92,0,0,0-1,1.5A2.89,2.89,0,0,0,44,39s0,.09,0,.14A4,4,0,0,0,45,47a3.93,3.93,0,0,0,2.24-.69A4,4,0,0,0,50.46,49a3.83,3.83,0,0,0,.3-.65,3.69,3.69,0,0,0,1.23.55,4,4,0,0,0,2.77-2.55,3.91,3.91,0,0,0,1.71.65A3.94,3.94,0,0,0,57,45a4,4,0,0,0-3-3.86s0-.09,0-.14a3,3,0,0,0-4.12-2.78,3,3,0,0,0-1.8-2,3.06,3.06,0,0,0-.43-.13l-.09,0a2.64,2.64,0,0,0-1.12,0Z"/><path class="cls-8" d="M38,39.14s0-.09,0-.14a3,3,0,0,0-4.12-2.78,3,3,0,0,0-5.76,0A3,3,0,0,0,24,39s0,.09,0,.14A4,4,0,0,0,25,47a3.93,3.93,0,0,0,2.24-.69,4,4,0,0,0,7.52,0A3.93,3.93,0,0,0,37,47a4,4,0,0,0,1-7.86Z"/><path class="cls-2" d="M26.25,36.11a1.7,1.7,0,0,0-.32.1l-.23.1-.24.13-.24.16a.53.53,0,0,0-.14.12,2.92,2.92,0,0,0-1,1.5A2.89,2.89,0,0,0,24,39s0,.09,0,.14A4,4,0,0,0,25,47a3.93,3.93,0,0,0,2.24-.69A4,4,0,0,0,30.46,49a3.83,3.83,0,0,0,.3-.65,3.69,3.69,0,0,0,1.23.55,4,4,0,0,0,2.77-2.55,3.91,3.91,0,0,0,1.71.65A3.94,3.94,0,0,0,37,45a4,4,0,0,0-3-3.86s0-.09,0-.14a3,3,0,0,0-4.12-2.78,3,3,0,0,0-1.8-2,3.06,3.06,0,0,0-.43-.13l-.09,0a2.64,2.64,0,0,0-1.12,0Z"/><path class="cls-8" d="M18,39.14s0-.09,0-.14a3,3,0,0,0-4.12-2.78,3,3,0,0,0-5.76,0A3,3,0,0,0,4,39s0,.09,0,.14A4,4,0,0,0,5,47a3.93,3.93,0,0,0,2.24-.69,4,4,0,0,0,7.52,0A3.93,3.93,0,0,0,17,47a4,4,0,0,0,1-7.86Z"/><path class="cls-2" d="M6.25,36.11a1.7,1.7,0,0,0-.32.1l-.23.1-.24.13-.24.16a.53.53,0,0,0-.14.12,2.92,2.92,0,0,0-1,1.5A2.89,2.89,0,0,0,4,39s0,.09,0,.14A4,4,0,0,0,5,47a3.93,3.93,0,0,0,2.24-.69A4,4,0,0,0,10.46,49a3.83,3.83,0,0,0,.3-.65,3.69,3.69,0,0,0,1.23.55,4,4,0,0,0,2.77-2.55,3.91,3.91,0,0,0,1.71.65A3.94,3.94,0,0,0,17,45a4,4,0,0,0-3-3.86s0-.09,0-.14a3,3,0,0,0-4.12-2.78,3,3,0,0,0-1.8-2,3.06,3.06,0,0,0-.43-.13l-.09,0a2.64,2.64,0,0,0-1.12,0Z"/><path class="cls-10" d="M49,13H44.42A4.94,4.94,0,0,0,44,15h5Z"/><rect class="cls-10" height="2" width="5" x="49" y="17"/><path class="cls-11" d="M19,13a8.26,8.26,0,0,0-1,.06V22h2V13.06A8.26,8.26,0,0,0,19,13Z"/><path class="cls-11" d="M14,14.52V22h2V13.52A9.12,9.12,0,0,0,14,14.52Z"/><path class="cls-11" d="M22,13.52V22h2V14.52A9.12,9.12,0,0,0,22,13.52Z"/></g></svg>