<?xml version="1.0" encoding="UTF-8"?>
<svg xmlns="http://www.w3.org/2000/svg" xmlns:xlink="http://www.w3.org/1999/xlink" width="375pt" height="374.999991pt" viewBox="0 0 375 374.999991" version="1.2">
<defs>
<clipPath id="clip1">
  <path d="M 30.414062 30.414062 L 344.664062 30.414062 L 344.664062 344.664062 L 30.414062 344.664062 Z M 30.414062 30.414062 "/>
</clipPath>
</defs>
<g id="surface1">
<g clip-path="url(#clip1)" clip-rule="nonzero">
<path style=" stroke:none;fill-rule:nonzero;fill:rgb(94.119263%,72.549438%,4.309082%);fill-opacity:1;" d="M 344.746094 187.578125 C 344.746094 190.152344 344.679688 192.722656 344.554688 195.289062 C 344.429688 197.859375 344.238281 200.421875 343.988281 202.984375 C 343.734375 205.542969 343.421875 208.09375 343.042969 210.640625 C 342.664062 213.183594 342.226562 215.71875 341.722656 218.238281 C 341.222656 220.761719 340.660156 223.269531 340.035156 225.765625 C 339.410156 228.261719 338.722656 230.738281 337.976562 233.199219 C 337.230469 235.664062 336.421875 238.105469 335.558594 240.527344 C 334.691406 242.949219 333.765625 245.347656 332.78125 247.722656 C 331.796875 250.097656 330.753906 252.449219 329.65625 254.773438 C 328.554688 257.101562 327.398438 259.398438 326.1875 261.664062 C 324.972656 263.933594 323.707031 266.171875 322.382812 268.378906 C 321.0625 270.582031 319.6875 272.757812 318.257812 274.894531 C 316.828125 277.035156 315.347656 279.136719 313.816406 281.203125 C 312.28125 283.269531 310.699219 285.296875 309.070312 287.285156 C 307.4375 289.273438 305.757812 291.21875 304.03125 293.125 C 302.304688 295.03125 300.53125 296.894531 298.710938 298.710938 C 296.894531 300.53125 295.03125 302.304688 293.125 304.03125 C 291.21875 305.757812 289.273438 307.4375 287.285156 309.070312 C 285.296875 310.699219 283.269531 312.28125 281.203125 313.816406 C 279.136719 315.347656 277.035156 316.828125 274.894531 318.257812 C 272.757812 319.6875 270.582031 321.0625 268.378906 322.382812 C 266.171875 323.707031 263.933594 324.972656 261.664062 326.1875 C 259.398438 327.398438 257.101562 328.554688 254.773438 329.65625 C 252.449219 330.753906 250.097656 331.796875 247.722656 332.78125 C 245.347656 333.765625 242.949219 334.691406 240.527344 335.558594 C 238.105469 336.421875 235.664062 337.230469 233.199219 337.976562 C 230.738281 338.722656 228.261719 339.410156 225.765625 340.035156 C 223.269531 340.660156 220.761719 341.222656 218.238281 341.722656 C 215.71875 342.226562 213.183594 342.664062 210.640625 343.042969 C 208.09375 343.421875 205.542969 343.734375 202.984375 343.988281 C 200.421875 344.238281 197.859375 344.429688 195.289062 344.554688 C 192.722656 344.679688 190.152344 344.746094 187.578125 344.746094 C 185.007812 344.746094 182.433594 344.679688 179.867188 344.554688 C 177.296875 344.429688 174.734375 344.238281 172.171875 343.988281 C 169.613281 343.734375 167.0625 343.421875 164.515625 343.042969 C 161.972656 342.664062 159.4375 342.226562 156.917969 341.722656 C 154.394531 341.222656 151.886719 340.660156 149.390625 340.035156 C 146.894531 339.410156 144.417969 338.722656 141.957031 337.976562 C 139.492188 337.230469 137.050781 336.421875 134.628906 335.558594 C 132.207031 334.691406 129.808594 333.765625 127.433594 332.78125 C 125.058594 331.796875 122.707031 330.753906 120.382812 329.65625 C 118.054688 328.554688 115.757812 327.398438 113.492188 326.1875 C 111.222656 324.972656 108.984375 323.707031 106.777344 322.382812 C 104.574219 321.0625 102.398438 319.6875 100.261719 318.257812 C 98.121094 316.828125 96.019531 315.347656 93.953125 313.816406 C 91.886719 312.28125 89.863281 310.699219 87.875 309.070312 C 85.886719 307.4375 83.9375 305.757812 82.03125 304.03125 C 80.125 302.304688 78.265625 300.53125 76.445312 298.710938 C 74.625 296.894531 72.851562 295.03125 71.125 293.125 C 69.398438 291.21875 67.71875 289.273438 66.085938 287.285156 C 64.457031 285.296875 62.875 283.269531 61.339844 281.203125 C 59.808594 279.136719 58.328125 277.035156 56.898438 274.894531 C 55.46875 272.757812 54.09375 270.582031 52.773438 268.378906 C 51.449219 266.171875 50.183594 263.933594 48.96875 261.664062 C 47.757812 259.398438 46.601562 257.101562 45.5 254.773438 C 44.402344 252.449219 43.359375 250.097656 42.375 247.722656 C 41.390625 245.347656 40.464844 242.949219 39.597656 240.527344 C 38.734375 238.105469 37.925781 235.664062 37.179688 233.199219 C 36.433594 230.738281 35.746094 228.261719 35.121094 225.765625 C 34.496094 223.269531 33.933594 220.761719 33.433594 218.238281 C 32.929688 215.71875 32.492188 213.183594 32.113281 210.640625 C 31.734375 208.09375 31.421875 205.542969 31.167969 202.984375 C 30.917969 200.421875 30.726562 197.859375 30.601562 195.289062 C 30.476562 192.722656 30.414062 190.152344 30.414062 187.578125 C 30.414062 185.007812 30.476562 182.433594 30.601562 179.867188 C 30.726562 177.296875 30.917969 174.734375 31.167969 172.171875 C 31.421875 169.613281 31.734375 167.0625 32.113281 164.515625 C 32.492188 161.972656 32.929688 159.4375 33.433594 156.917969 C 33.933594 154.394531 34.496094 151.886719 35.121094 149.390625 C 35.746094 146.894531 36.433594 144.417969 37.179688 141.957031 C 37.925781 139.492188 38.734375 137.050781 39.597656 134.628906 C 40.464844 132.207031 41.390625 129.808594 42.375 127.433594 C 43.359375 125.058594 44.402344 122.707031 45.5 120.382812 C 46.601562 118.054688 47.757812 115.757812 48.96875 113.492188 C 50.183594 111.222656 51.449219 108.984375 52.773438 106.777344 C 54.09375 104.574219 55.46875 102.398438 56.898438 100.261719 C 58.328125 98.121094 59.808594 96.019531 61.339844 93.953125 C 62.875 91.886719 64.457031 89.863281 66.085938 87.875 C 67.71875 85.886719 69.398438 83.9375 71.125 82.03125 C 72.851562 80.125 74.625 78.265625 76.445312 76.445312 C 78.265625 74.625 80.125 72.851562 82.03125 71.125 C 83.9375 69.398438 85.886719 67.71875 87.875 66.085938 C 89.863281 64.457031 91.886719 62.875 93.953125 61.339844 C 96.019531 59.808594 98.121094 58.328125 100.261719 56.898438 C 102.398438 55.46875 104.574219 54.09375 106.777344 52.773438 C 108.984375 51.449219 111.222656 50.183594 113.492188 48.96875 C 115.757812 47.757812 118.054688 46.601562 120.382812 45.5 C 122.707031 44.402344 125.058594 43.359375 127.433594 42.375 C 129.808594 41.390625 132.207031 40.464844 134.628906 39.597656 C 137.050781 38.734375 139.492188 37.925781 141.957031 37.179688 C 144.417969 36.433594 146.894531 35.746094 149.390625 35.121094 C 151.886719 34.496094 154.394531 33.933594 156.917969 33.433594 C 159.4375 32.929688 161.972656 32.492188 164.515625 32.113281 C 167.0625 31.734375 169.613281 31.421875 172.171875 31.167969 C 174.734375 30.917969 177.296875 30.726562 179.867188 30.601562 C 182.433594 30.476562 185.007812 30.414062 187.578125 30.414062 C 190.152344 30.414062 192.722656 30.476562 195.289062 30.601562 C 197.859375 30.726562 200.421875 30.917969 202.984375 31.167969 C 205.542969 31.421875 208.09375 31.734375 210.640625 32.113281 C 213.183594 32.492188 215.71875 32.929688 218.238281 33.433594 C 220.761719 33.933594 223.269531 34.496094 225.765625 35.121094 C 228.261719 35.746094 230.738281 36.433594 233.199219 37.179688 C 235.664062 37.925781 238.105469 38.734375 240.527344 39.597656 C 242.949219 40.464844 245.347656 41.390625 247.722656 42.375 C 250.097656 43.359375 252.449219 44.402344 254.773438 45.5 C 257.101562 46.601562 259.398438 47.757812 261.664062 48.96875 C 263.933594 50.183594 266.171875 51.449219 268.378906 52.773438 C 270.582031 54.09375 272.757812 55.46875 274.894531 56.898438 C 277.035156 58.328125 279.136719 59.808594 281.203125 61.339844 C 283.269531 62.875 285.296875 64.457031 287.285156 66.085938 C 289.273438 67.71875 291.21875 69.398438 293.125 71.125 C 295.03125 72.851562 296.894531 74.625 298.710938 76.445312 C 300.53125 78.265625 302.304688 80.125 304.03125 82.03125 C 305.757812 83.9375 307.4375 85.886719 309.070312 87.875 C 310.699219 89.863281 312.28125 91.886719 313.816406 93.953125 C 315.347656 96.019531 316.828125 98.121094 318.257812 100.261719 C 319.6875 102.398438 321.0625 104.574219 322.382812 106.777344 C 323.707031 108.984375 324.972656 111.222656 326.1875 113.492188 C 327.398438 115.757812 328.554688 118.054688 329.65625 120.382812 C 330.753906 122.707031 331.796875 125.058594 332.78125 127.433594 C 333.765625 129.808594 334.691406 132.207031 335.558594 134.628906 C 336.421875 137.050781 337.230469 139.492188 337.976562 141.957031 C 338.722656 144.417969 339.410156 146.894531 340.035156 149.390625 C 340.660156 151.886719 341.222656 154.394531 341.722656 156.917969 C 342.226562 159.4375 342.664062 161.972656 343.042969 164.515625 C 343.421875 167.0625 343.734375 169.613281 343.988281 172.171875 C 344.238281 174.734375 344.429688 177.296875 344.554688 179.867188 C 344.679688 182.433594 344.746094 185.007812 344.746094 187.578125 Z M 344.746094 187.578125 "/>
</g>
<path style=" stroke:none;fill-rule:evenodd;fill:rgb(100%,100%,100%);fill-opacity:1;" d="M 120.691406 147.65625 L 187.644531 80.707031 L 214.339844 107.402344 L 147.386719 174.355469 Z M 120.738281 227.664062 L 227.734375 120.667969 L 254.433594 147.363281 L 147.433594 254.359375 Z M 267.753906 160.761719 L 160.757812 267.757812 L 187.449219 294.449219 L 294.449219 187.457031 Z M 80.707031 187.636719 L 107.402344 160.9375 L 134.097656 187.636719 L 107.402344 214.332031 Z M 80.707031 187.636719 "/>
</g>
</svg>
