<svg xmlns="http://www.w3.org/2000/svg" width="2500" height="2500" viewBox="0 0 2000 2000">
    <g fill="#f3ba2f">
        <path d="M611.59 840.42l388.4-388.39 388.6 388.59 226-226L999.99 0 385.6 614.42l225.99 226M.006 999.969l226.007-226.007 225.992 225.993L226 1225.96zM611.59 1159.58l388.4 388.39 388.59-388.58 226.12 225.88-.11.12L999.99 2000l-614.41-614.4-.32-.32 226.33-225.7M1548.013 1000.093l226.007-226.006 225.992 225.992-226.006 226.007z"/>
        <path d="M1229.22 999.88h.1L999.99 770.55 830.51 940.03h-.01l-19.47 19.48-40.16 40.17-.32.31.32.33 229.12 229.13 229.33-229.33.11-.13-.21-.11"/>
    </g>
    <g>
        <defs><style>.cls-1{fill:#c5e260;}.cls-2{fill:#ffeb71;}.cls-3{fill:#cd5257;}.cls-4{fill:#94aa48;}.cls-5{fill:#c1272d;}.cls-6{fill:#7d5d3e;}.cls-7{fill:#a67c52;}.cls-8{fill:#754c24;}.cls-9{fill:#8c6239;}.cls-10{fill:none;stroke:#000;stroke-linejoin:round;stroke-width:2px;}</style></defs><title/>
        <g data-name="Layer 21" id="Layer_21" transform="translate(184.3)">
            <path class="cls-1" d="M52,30a5,5,0,0,0,1.76-9.67A4.18,4.18,0,0,0,54,19a4,4,0,0,0-3.17-3.91A3.94,3.94,0,0,0,51,14a4,4,0,0,0-8,0,3.94,3.94,0,0,0,.17,1.09A4,4,0,0,0,40,19a4.18,4.18,0,0,0,.24,1.33A5,5,0,0,0,42,30Z"/>
            <path class="cls-2" d="M36,36a5,5,0,0,0,1.76-9.67A4.18,4.18,0,0,0,38,25a4,4,0,0,0-3.17-3.91A3.94,3.94,0,0,0,35,20a4,4,0,0,0-8,0,3.94,3.94,0,0,0,.17,1.09A4,4,0,0,0,24,25a4.18,4.18,0,0,0,.24,1.33A5,5,0,0,0,26,36Z"/>
            <path class="cls-1" d="M26,36a5,5,0,0,1-5-5h0L4,14v9.51A20.54,20.54,0,0,0,8.24,36Z"/>
            <path class="cls-3" d="M26,36a5,5,0,0,1-5-5h0L8,18H8v4.93A17.07,17.07,0,0,0,13,35h0c.35.35.71.68,1.09,1Z"/>
            <path class="cls-4" d="M13,15h0a6.84,6.84,0,0,1-2-4.83V9h1.17A6.84,6.84,0,0,1,17,11h0a6.84,6.84,0,0,1,2,4.83V17H17.83A6.84,6.84,0,0,1,13,15Z"/>
            <path class="cls-1" d="M16,15.83a6.8,6.8,0,0,0-5-6.57v.91a6.8,6.8,0,0,0,5,6.57Z"/>
            <path class="cls-4" d="M59,28h0a6.84,6.84,0,0,0,2-4.83V22H59.83A6.84,6.84,0,0,0,55,24h0a6.84,6.84,0,0,0-2,4.83V30h1.17A6.84,6.84,0,0,0,59,28Z"/>
            <path class="cls-1" d="M55,24a6.84,6.84,0,0,0-2,4.83v.91a6.8,6.8,0,0,0,5-6.57v-.91A6.81,6.81,0,0,0,55,24Z"/>
            <path class="cls-4" d="M32,8h0a6.84,6.84,0,0,0,2-4.83V2H32.83A6.84,6.84,0,0,0,28,4h0a6.84,6.84,0,0,0-2,4.83V10h1.17A6.84,6.84,0,0,0,32,8Z"/>
            <path class="cls-1" d="M28,4a6.84,6.84,0,0,0-2,4.83v.91a6.8,6.8,0,0,0,5-6.57V2.26A6.81,6.81,0,0,0,28,4Z"/><circle class="cls-5" cx="49" cy="27" r="5"/><ellipse class="cls-3" cx="47.5" cy="27" rx="3.5" ry="4.75"/><circle class="cls-5" cx="44" cy="33" r="5"/><ellipse class="cls-3" cx="42.5" cy="33" rx="3.5" ry="4.75"/><circle class="cls-5" cx="54" cy="33" r="5"/><ellipse class="cls-3" cx="52.5" cy="33" rx="3.5" ry="4.75"/><path class="cls-6" d="M2,36H62a0,0,0,0,1,0,0v0A26,26,0,0,1,36,62H28A26,26,0,0,1,2,36v0A0,0,0,0,1,2,36Z"/>
            <path class="cls-7" d="M59,36H2A26,26,0,0,0,28,62h5A26,26,0,0,0,59,36Z"/>
            <path class="cls-4" d="M32,40v8a2,2,0,0,0,2,2h0a2,2,0,0,0,2-2V46a2,2,0,0,1,2-2h0a2,2,0,0,1,2,2v6a2,2,0,0,0,2,2h0a2,2,0,0,0,2-2V48a2,2,0,0,1,2-2h0a2,2,0,0,1,2,2v1a2,2,0,0,0,2,2h0a2,2,0,0,0,2-2V40"/>
            <path class="cls-1" d="M33,49.72A2,2,0,0,0,34,48V46a2,2,0,0,1,3-1.72A2,2,0,0,1,40,46v6a2,2,0,0,0,1,1.72A2,2,0,0,0,42,52V48a2,2,0,0,1,3-1.72A2,2,0,0,1,48,48v1a2,2,0,0,0,1,1.72A2,2,0,0,0,50,49V40H32v8A2,2,0,0,0,33,49.72Z"/>
            <path class="cls-8" d="M2.29,39.86H61.71A25.89,25.89,0,0,0,62,36H2A25.89,25.89,0,0,0,2.29,39.86Z"/>
            <path class="cls-9" d="M2,36a25.89,25.89,0,0,0,.29,3.86H58.71A25.89,25.89,0,0,0,59,36Z"/>
            <path class="cls-10" d="M44.1,28a4.81,4.81,0,0,1-.1-1,5,5,0,0,1,10,0,4.53,4.53,0,0,1-.1,1"/>
            <path class="cls-10" d="M2,36H62a0,0,0,0,1,0,0v0A26,26,0,0,1,36,62H28A26,26,0,0,1,2,36v0A0,0,0,0,1,2,36Z"/>
            <path class="cls-10" d="M40,36a4.94,4.94,0,0,1-1-3,5,5,0,0,1,10,0,4.94,4.94,0,0,1-1,3"/>
            <path class="cls-10" d="M50,36a4.94,4.94,0,0,1-1-3,5,5,0,1,1,9,3"/><path class="cls-10" d="M54,25.65a6.43,6.43,0,0,1,1-1.27h0a6.84,6.84,0,0,1,4.83-2H61v1.17a6.84,6.84,0,0,1-2,4.83h0a7,7,0,0,1-1.45,1.1"/>
            <path class="cls-10" d="M21,31,4,14v9.51A20.54,20.54,0,0,0,8.24,36"/><path class="cls-10" d="M8,18v4.93A17.07,17.07,0,0,0,13,35h0c.35.35.71.68,1.09,1"/><path class="cls-10" d="M36,36a4.94,4.94,0,0,0,3.42-1.36"/><path class="cls-10" d="M40.58,29a5,5,0,0,0-2.82-2.67A4.18,4.18,0,0,0,38,25a4,4,0,0,0-3.17-3.91A3.94,3.94,0,0,0,35,20a4,4,0,0,0-8,0,3.94,3.94,0,0,0,.17,1.09A4,4,0,0,0,24,25a4.18,4.18,0,0,0,.24,1.33A5,5,0,0,0,26,36H36"/><path class="cls-10" d="M56.58,23a5,5,0,0,0-2.82-2.67A4.18,4.18,0,0,0,54,19a4,4,0,0,0-3.17-3.91A3.94,3.94,0,0,0,51,14a4,4,0,0,0-8,0,3.94,3.94,0,0,0,.17,1.09A4,4,0,0,0,40,19a4.18,4.18,0,0,0,.24,1.33A5,5,0,0,0,37.42,23"/><line class="cls-10" x1="31" x2="31" y1="36" y2="23"/><line class="cls-10" x1="31" x2="34" y1="28" y2="25"/><line class="cls-10" x1="31" x2="28" y1="32" y2="29"/><line class="cls-10" x1="2" x2="62" y1="40" y2="40"/><path class="cls-10" d="M13,15h0a6.84,6.84,0,0,1-2-4.83V9h1.17A6.84,6.84,0,0,1,17,11h0a6.84,6.84,0,0,1,2,4.83V17H17.83A6.84,6.84,0,0,1,13,15Z"/><path class="cls-10" d="M32,8h0a6.84,6.84,0,0,0,2-4.83V2H32.83A6.84,6.84,0,0,0,28,4h0a6.84,6.84,0,0,0-2,4.83V10h1.17A6.84,6.84,0,0,0,32,8Z"/><path class="cls-10" d="M32,40v8a2,2,0,0,0,2,2h0a2,2,0,0,0,2-2V46a2,2,0,0,1,2-2h0a2,2,0,0,1,2,2v6a2,2,0,0,0,2,2h0a2,2,0,0,0,2-2V48a2,2,0,0,1,2-2h0a2,2,0,0,1,2,2v1a2,2,0,0,0,2,2h0a2,2,0,0,0,2-2V40"/>
        </g>
    </g>
</svg>