<?xml version="1.0" standalone="no"?>
<!DOCTYPE svg PUBLIC "-//W3C//DTD SVG 20010904//EN"
 "http://www.w3.org/TR/2001/REC-SVG-20010904/DTD/svg10.dtd">
<svg version="1.0" xmlns="http://www.w3.org/2000/svg"
 width="630.000000pt" height="630.000000pt" viewBox="0 0 630.000000 630.000000"
 preserveAspectRatio="xMidYMid meet">

<g transform="translate(0.000000,630.000000) scale(0.100000,-0.100000)"
fill="#000000" stroke="none">
<path d="M2953 5749 c-239 -18 -479 -69 -690 -145 -96 -35 -135 -44 -186 -44
-86 0 -157 -36 -201 -101 -21 -31 -56 -60 -110 -94 -191 -117 -409 -301 -559
-471 -91 -103 -92 -104 -138 -104 -57 0 -139 -39 -172 -83 -40 -54 -50 -100
-43 -204 l6 -93 -45 -90 c-121 -240 -207 -520 -252 -817 -22 -150 -22 -556 0
-706 74 -492 258 -918 553 -1287 88 -109 285 -306 394 -394 555 -444 1255
-638 1980 -550 69 9 156 22 193 31 63 14 80 14 192 -2 69 -10 148 -15 177 -13
35 3 126 34 268 92 l215 87 170 3 c174 3 214 10 338 56 119 44 237 162 299
298 36 79 64 196 79 334 14 127 6 222 -25 282 l-22 44 23 39 c43 69 132 251
172 350 79 199 134 405 168 630 22 150 22 556 0 706 -74 492 -258 918 -553
1287 -88 109 -285 306 -394 394 -515 412 -1178 616 -1837 565z m462 -294
c1202 -141 2094 -1176 2052 -2380 -7 -200 -26 -331 -73 -514 -75 -289 -222
-587 -408 -830 -73 -94 -71 -94 -84 21 -30 256 -131 438 -289 521 -222 116
-474 81 -719 -101 l-79 -58 -73 22 c-108 33 -243 54 -348 54 -91 0 -92 0 -98
26 -4 15 -6 28 -4 29 2 1 73 23 158 49 175 53 424 141 549 194 l84 36 33 72
33 73 -14 98 c-74 489 -171 873 -335 1319 l-52 140 69 70 c77 77 102 122 105
185 1 35 -3 46 -26 66 -15 12 -35 23 -46 23 -26 0 -74 -59 -116 -142 l-36 -71
-112 229 c-114 232 -194 377 -272 493 -37 55 -43 61 -52 45 -5 -11 -44 -107
-87 -214 -43 -107 -79 -197 -81 -199 -3 -3 -10 2 -17 11 -48 59 -138 94 -202
77 -51 -14 -106 -55 -100 -74 3 -8 7 -21 9 -29 4 -11 14 -5 40 19 50 46 105
54 174 25 95 -41 94 -39 27 -205 -32 -80 -60 -145 -62 -145 -9 0 -163 -32
-226 -47 -37 -9 -71 -13 -74 -9 -4 4 -9 38 -11 76 l-4 69 -63 -6 -62 -6 -73
139 c-40 77 -94 180 -120 229 -143 273 -200 384 -200 393 0 12 177 87 305 130
290 97 664 134 980 97z m-1334 -382 c0 -71 2 -150 4 -178 1 -27 6 -158 10
-290 l7 -240 -46 -28 c-25 -16 -46 -32 -46 -35 0 -4 14 -29 30 -57 16 -27 30
-55 30 -62 0 -10 -169 -73 -198 -73 -10 0 -313 171 -331 186 -2 2 9 34 25 71
53 127 148 197 234 175 42 -10 48 -5 30 29 -9 15 -22 19 -66 19 -103 0 -178
-63 -214 -179 -11 -35 -20 -72 -20 -82 0 -29 5 -31 -173 73 l-117 69 60 78
c140 181 291 331 465 462 98 73 282 189 303 189 9 0 12 -33 13 -127z m53 12
c-9 -14 -18 -25 -20 -25 -2 0 -4 28 -4 63 l1 62 20 -37 c18 -36 18 -40 3 -63z
m85 -105 l39 -75 -67 -76 -66 -77 -5 132 c-6 129 -5 132 19 163 29 37 26 40
80 -67z m106 -201 l48 -91 -122 -122 -121 -121 -2 103 c-1 56 -2 115 -2 131
-1 22 16 49 68 110 38 45 72 81 76 81 3 0 28 -41 55 -91z m132 -252 c13 -27
23 -50 21 -52 -2 -2 -53 -12 -114 -24 -61 -12 -137 -30 -169 -41 -32 -11 -61
-18 -64 -15 -3 3 53 64 124 135 l129 129 24 -42 c13 -23 35 -64 49 -90z m1188
-132 l28 -64 -32 -48 c-17 -26 -40 -58 -51 -71 l-19 -23 -49 36 c-221 158
-505 136 -692 -54 -108 -110 -160 -241 -160 -401 0 -163 59 -309 170 -423 55
-56 64 -70 51 -77 -9 -4 -137 -65 -286 -135 -148 -69 -271 -128 -273 -130 -6
-6 124 -202 193 -290 85 -110 218 -233 294 -274 169 -90 303 -28 365 167 36
116 49 220 49 400 l0 162 41 0 c157 1 349 125 429 278 52 98 70 172 70 277 0
138 -46 277 -124 376 l-29 37 50 32 c28 18 52 31 55 29 15 -16 140 -379 196
-574 82 -283 129 -502 194 -911 6 -37 16 -32 -190 -98 -439 -140 -914 -272
-1380 -381 -316 -74 -777 -167 -786 -157 -30 30 -243 642 -333 954 -38 131
-106 387 -130 491 l-6 27 62 0 63 0 -3 -89 c-9 -227 117 -445 313 -538 70 -33
88 -37 179 -41 111 -5 178 9 267 53 62 32 149 113 195 182 114 172 127 408 33
599 -63 128 -189 235 -322 276 -90 27 -234 22 -317 -11 -72 -30 -167 -98 -214
-155 -41 -51 -106 -168 -106 -193 0 -19 -31 -12 -112 24 -71 32 -75 36 -83 99
l-7 50 139 66 c525 253 1199 437 2088 572 156 24 149 26 180 -49z m-1021 39
c3 -9 6 -37 6 -64 l0 -48 -77 -17 c-43 -10 -159 -39 -258 -66 -99 -27 -184
-48 -190 -45 -6 2 -23 26 -38 54 l-28 51 44 25 c96 57 311 108 518 125 9 0 20
-6 23 -15z m707 -150 c258 -77 438 -337 414 -597 -25 -272 -204 -459 -468
-491 -53 -6 -52 -7 -62 66 l-6 47 43 19 c130 58 202 242 164 420 -43 206 -212
374 -375 376 -76 0 -126 -19 -179 -67 -87 -81 -125 -206 -104 -345 22 -145
124 -307 227 -360 l39 -20 -43 -22 -44 -22 -71 74 c-114 116 -166 244 -166
408 0 156 50 281 155 385 99 99 204 143 346 144 42 1 99 -6 130 -15z m-2180
-190 c16 -93 38 -213 49 -267 11 -55 20 -103 20 -108 0 -4 -37 14 -82 42 -95
57 -136 62 -152 18 -28 -80 66 -170 212 -203 l57 -12 23 -90 c142 -552 261
-930 408 -1294 l55 -135 114 -41 115 -41 82 13 c141 24 421 74 458 83 95 24
261 54 266 48 3 -3 8 -23 11 -44 5 -37 2 -43 -49 -94 -83 -82 -102 -141 -95
-289 9 -186 90 -608 142 -737 16 -40 17 -41 77 -47 126 -15 314 -23 333 -16
11 4 81 37 155 72 74 35 166 77 203 93 56 25 67 34 63 50 -2 11 -34 127 -70
258 -68 248 -122 484 -112 494 9 10 59 -16 93 -47 84 -79 137 -192 193 -417
34 -140 90 -415 90 -448 0 -7 -30 -20 -66 -29 -496 -125 -999 -94 -1454 89
-710 285 -1238 905 -1404 1648 -99 441 -62 938 100 1345 44 111 126 283 132
278 2 -3 17 -80 33 -172z m1973 -16 c132 -38 238 -184 266 -367 24 -151 -35
-297 -142 -350 l-42 -20 -13 29 c-15 36 -23 37 -89 6 l-52 -24 -49 28 c-146
84 -244 299 -213 471 34 188 164 276 334 227z m-994 -139 c190 -91 302 -273
302 -494 1 -166 -57 -301 -175 -413 -191 -179 -471 -171 -658 18 -283 287
-173 789 199 911 44 15 80 18 157 16 91 -2 107 -6 175 -38z m964 -725 c-3 -29
-11 -60 -18 -69 -15 -20 -35 -13 -99 37 -71 56 -69 64 25 108 l83 39 8 -32 c4
-18 5 -55 1 -83z m96 -414 c-15 -120 -51 -234 -91 -289 -39 -55 -104 -85 -163
-77 -68 11 -68 12 -50 106 38 200 133 359 258 431 l51 29 3 -53 c2 -28 -2 -95
-8 -147z m891 -213 l-19 -45 -154 -60 c-158 -62 -530 -186 -592 -198 -32 -5
-36 -4 -36 15 0 26 -32 27 -170 7 -185 -28 -359 -102 -345 -147 4 -11 3 -19 0
-19 -3 0 -106 -20 -228 -45 -122 -24 -299 -58 -394 -74 l-172 -29 -68 25 c-37
13 -69 26 -71 27 -1 2 48 13 110 25 642 126 1415 326 2003 519 83 27 151 48
153 47 1 -1 -6 -23 -17 -48z m433 -306 c86 -31 137 -63 195 -126 123 -135 179
-350 168 -640 -3 -77 -8 -148 -12 -157 -4 -10 -3 -18 1 -18 5 0 71 52 148 115
76 63 141 115 143 115 10 0 -10 -167 -28 -237 -22 -89 -56 -155 -105 -211 -95
-106 -331 -131 -564 -60 -36 11 -68 23 -72 26 -6 6 -92 329 -104 391 -10 53
-69 223 -112 326 -56 135 -106 189 -237 257 l-87 45 63 45 c120 85 183 113
314 144 79 18 213 11 289 -15z m-1254 -42 c6 -23 10 -43 8 -44 -2 -2 -39 -11
-82 -20 -105 -22 -249 -70 -313 -104 -59 -32 -57 -34 -68 49 -7 45 -6 46 33
68 82 46 254 89 359 91 l52 1 11 -41z m290 -94 c133 -20 230 -49 339 -101 128
-60 170 -97 219 -191 56 -108 197 -532 181 -547 -2 -2 -44 4 -93 13 l-89 16
-28 102 c-64 240 -104 327 -189 413 -92 93 -235 160 -344 160 -101 0 -146 -34
-146 -109 0 -56 21 -177 55 -318 14 -58 24 -108 21 -110 -4 -4 -254 42 -260
48 -11 11 -39 300 -39 409 -1 145 12 207 46 215 85 18 210 18 327 0z m-397
-52 c-13 -63 -7 -341 11 -462 9 -63 15 -115 13 -116 -31 -22 -440 -236 -443
-232 -19 18 -64 326 -64 433 0 112 20 166 87 231 61 60 179 122 298 158 109
32 107 32 98 -12z m511 -147 c131 -47 240 -142 295 -259 27 -57 117 -355 109
-361 -1 -2 -46 -29 -98 -61 -52 -32 -111 -68 -131 -81 l-36 -23 -28 127 c-73
339 -176 539 -299 583 -29 11 -36 18 -36 40 0 62 105 79 224 35z m-464 -537
c11 -68 10 -83 -1 -94 -8 -7 -107 -60 -221 -119 l-207 -107 -11 43 c-6 24 -15
59 -20 78 -5 19 -6 37 -2 41 10 10 436 239 443 239 4 0 12 -36 19 -81z m170
56 c68 -14 124 -26 125 -28 8 -13 36 -139 31 -144 -3 -3 -68 3 -143 13 l-138
19 -12 55 c-16 77 -16 110 1 110 7 0 69 -11 136 -25z m875 -179 l60 -12 14
-57 c8 -31 13 -58 10 -61 -2 -2 -44 1 -94 8 l-89 11 -12 40 c-6 22 -14 53 -18
68 -7 31 -17 31 129 3z m-820 -11 c60 -9 110 -17 111 -18 5 -6 43 -142 40
-145 -4 -3 -215 23 -267 34 -23 4 -28 12 -38 61 -17 86 -16 93 17 88 15 -3 76
-12 137 -20z m672 -31 c7 -27 13 -54 13 -61 0 -10 -260 -163 -278 -163 -5 0
-13 25 -19 56 l-10 57 66 41 c36 22 95 60 131 83 36 22 69 40 75 39 5 -1 15
-25 22 -52z m-868 -25 c8 -39 9 -75 5 -79 -19 -18 -409 -199 -416 -192 -7 8
-39 114 -35 117 8 7 423 225 428 225 3 0 12 -32 18 -71z m915 -172 c6 -27 4
-28 -141 -97 -151 -72 -162 -74 -163 -25 0 11 -3 30 -6 42 -5 19 11 31 138
102 l143 81 11 -38 c6 -20 14 -49 18 -65z m121 92 c83 -13 77 -6 100 -118 7
-32 6 -33 -16 -28 -13 3 -57 11 -96 18 -40 7 -73 15 -73 18 -1 3 -7 32 -14 64
-16 67 -23 64 99 46z m-20 -164 c22 -4 47 -9 55 -12 8 -3 -52 -31 -135 -64
-151 -59 -167 -62 -239 -42 -25 7 231 133 259 128 11 -2 38 -7 60 -10z"/>
<path d="M3775 3023 c-67 -17 -110 -82 -103 -155 14 -138 195 -175 268 -56 43
71 14 164 -63 198 -42 19 -64 22 -102 13z"/>
<path d="M1829 2517 c-120 -80 -64 -261 81 -261 84 0 145 61 144 143 -1 115
-130 182 -225 118z"/>
<path d="M2980 3979 c-14 -6 -42 -26 -62 -46 -107 -105 -85 -322 45 -439 163
-147 367 -51 367 173 0 39 -4 74 -9 77 -4 3 -22 0 -39 -6 -91 -34 -236 86
-250 208 -5 46 -10 49 -52 33z"/>
<path d="M1973 3864 c-63 -23 -137 -95 -173 -167 -85 -174 -51 -407 77 -535
61 -61 112 -85 190 -90 213 -14 370 243 308 506 -41 174 -157 290 -299 298
-39 2 -76 -2 -103 -12z m203 -42 c89 -45 154 -149 175 -280 29 -183 -44 -357
-176 -418 -97 -46 -201 -20 -283 70 -56 61 -89 133 -103 227 -28 178 61 364
197 415 51 19 139 12 190 -14z"/>
<path d="M1990 3744 c-163 -69 -194 -324 -58 -479 142 -163 360 -70 384 163 7
67 1 77 -44 60 -91 -35 -227 94 -237 223 -1 22 -4 42 -6 44 -2 2 -20 -3 -39
-11z"/>
</g>
</svg>
