<?xml version="1.0" encoding="UTF-8"?>
<svg xmlns="http://www.w3.org/2000/svg" xmlns:xlink="http://www.w3.org/1999/xlink" width="375pt" height="374.999991pt" viewBox="0 0 375 374.999991" version="1.2">
<g id="surface1">
<path style=" stroke:none;fill-rule:nonzero;fill:rgb(39.99939%,62.348938%,25.878906%);fill-opacity:1;" d="M 22.492188 189.433594 C 13.542969 178.566406 20.59375 154.804688 43.878906 128.050781 C 66.925781 101.484375 106.195312 71.917969 155.941406 53.175781 C 205.472656 33.925781 254.449219 29.71875 289.34375 34.128906 C 324.539062 38.503906 345.636719 51.476562 346.242188 65.542969 C 346.359375 94.667969 273.898438 118.816406 193.160156 150.515625 C 111.898438 180.804688 41.824219 211.191406 22.492188 189.433594 "/>
<path style=" stroke:none;fill-rule:nonzero;fill:rgb(68.629456%,86.268616%,30.198669%);fill-opacity:1;" d="M 267 79.324219 C 261.769531 65.644531 268.617188 50.3125 282.292969 45.082031 C 295.972656 39.847656 311.296875 46.695312 316.53125 60.375 C 321.761719 74.054688 314.914062 89.386719 301.238281 94.617188 C 287.558594 99.851562 272.234375 93.003906 267 79.324219 "/>
<path style=" stroke:none;fill-rule:nonzero;fill:rgb(68.629456%,86.268616%,30.198669%);fill-opacity:1;" d="M 203 90.949219 C 197.769531 77.269531 204.617188 61.941406 218.292969 56.707031 C 231.972656 51.476562 247.300781 58.324219 252.53125 72.003906 C 257.765625 85.683594 250.917969 101.011719 237.238281 106.246094 C 223.578125 111.476562 208.234375 104.628906 203 90.949219 "/>
<path style=" stroke:none;fill-rule:nonzero;fill:rgb(68.629456%,86.268616%,30.198669%);fill-opacity:1;" d="M 145.882812 109.492188 C 140.648438 95.8125 147.496094 80.484375 161.175781 75.25 C 174.855469 70.019531 190.179688 76.867188 195.414062 90.546875 C 200.644531 104.226562 193.796875 119.554688 180.121094 124.789062 C 166.441406 130.019531 151.113281 123.171875 145.882812 109.492188 "/>
<path style=" stroke:none;fill-rule:nonzero;fill:rgb(68.629456%,86.268616%,30.198669%);fill-opacity:1;" d="M 90.480469 137.324219 C 85.246094 123.660156 92.09375 108.316406 105.773438 103.082031 C 119.433594 97.847656 134.777344 104.699219 140.011719 118.378906 C 145.242188 132.058594 138.394531 147.386719 124.71875 152.617188 C 111.039062 157.851562 95.710938 151.003906 90.480469 137.324219 "/>
<path style=" stroke:none;fill-rule:nonzero;fill:rgb(68.629456%,86.268616%,30.198669%);fill-opacity:1;" d="M 37.652344 167.089844 C 32.402344 153.410156 39.25 138.082031 52.929688 132.847656 C 66.605469 127.613281 81.933594 134.464844 87.164062 148.144531 C 92.398438 161.824219 85.550781 177.136719 71.890625 182.367188 C 58.210938 187.601562 42.882812 180.769531 37.652344 167.089844 "/>
<path style=" stroke:none;fill-rule:nonzero;fill:rgb(43.139648%,67.449951%,27.839661%);fill-opacity:1;" d="M 24.679688 195.15625 C 18.117188 190.511719 28.683594 175.941406 54.949219 156.976562 C 80.941406 138.148438 122.648438 114.929688 172.347656 96.066406 C 221.929688 76.933594 268.480469 66.382812 300.414062 63.050781 C 332.632812 59.636719 352.25 64.195312 348.429688 71.261719 C 332.195312 101.332031 274.03125 119.167969 193.160156 150.515625 C 112.03125 181.15625 49.648438 208.953125 24.679688 195.15625 "/>
<path style=" stroke:none;fill-rule:nonzero;fill:rgb(39.99939%,62.348938%,25.878906%);fill-opacity:1;" d="M 134.527344 336.902344 C 121.234375 332.292969 114.875 308.332031 120.8125 273.382812 C 126.617188 238.6875 144.738281 192.984375 177.445312 151.070312 C 209.695312 108.820312 249.300781 79.710938 281.386719 65.289062 C 313.703125 50.683594 338.488281 50.769531 346.308594 62.445312 C 361.585938 87.25 312.324219 145.621094 259.933594 214.742188 C 206.347656 282.941406 162.371094 345.398438 134.527344 336.902344 "/>
<path style=" stroke:none;fill-rule:nonzero;fill:rgb(68.629456%,86.268616%,30.198669%);fill-opacity:1;" d="M 285.859375 115.515625 C 274.269531 106.566406 272.113281 89.90625 281.066406 78.3125 C 290.015625 66.71875 306.671875 64.582031 318.265625 73.519531 C 329.855469 82.46875 331.992188 99.128906 323.042969 110.722656 C 314.109375 122.316406 297.453125 124.453125 285.859375 115.515625 "/>
<path style=" stroke:none;fill-rule:nonzero;fill:rgb(68.629456%,86.268616%,30.198669%);fill-opacity:1;" d="M 237.304688 158.777344 C 225.695312 149.84375 223.558594 133.183594 232.511719 121.589844 C 241.460938 109.996094 258.101562 107.84375 269.691406 116.796875 C 281.285156 125.746094 283.4375 142.40625 274.488281 154 C 265.535156 165.59375 248.898438 167.730469 237.304688 158.777344 "/>
<path style=" stroke:none;fill-rule:nonzero;fill:rgb(68.629456%,86.268616%,30.198669%);fill-opacity:1;" d="M 198.207031 204.378906 C 186.613281 195.425781 184.460938 178.785156 193.410156 167.191406 C 202.363281 155.597656 219 153.445312 230.59375 162.394531 C 242.203125 171.347656 244.339844 187.988281 235.386719 199.582031 C 226.453125 211.175781 209.796875 213.328125 198.207031 204.378906 "/>
<path style=" stroke:none;fill-rule:nonzero;fill:rgb(68.629456%,86.268616%,30.198669%);fill-opacity:1;" d="M 165.414062 257.011719 C 153.824219 248.058594 151.671875 231.398438 160.621094 219.808594 C 169.570312 208.214844 186.226562 206.078125 197.820312 215.027344 C 209.410156 223.964844 211.546875 240.621094 202.597656 252.214844 C 193.664062 263.808594 177.007812 265.960938 165.414062 257.011719 "/>
<path style=" stroke:none;fill-rule:nonzero;fill:rgb(68.629456%,86.268616%,30.198669%);fill-opacity:1;" d="M 135.820312 309.929688 C 124.230469 300.996094 122.074219 284.335938 131.042969 272.742188 C 139.976562 261.148438 156.632812 259.011719 168.226562 267.949219 C 179.816406 276.898438 181.953125 293.558594 173.003906 305.152344 C 164.070312 316.742188 147.414062 318.882812 135.820312 309.929688 "/>
<path style=" stroke:none;fill-rule:nonzero;fill:rgb(43.139648%,67.449951%,27.839661%);fill-opacity:1;" d="M 139.371094 340.65625 C 131.363281 340.117188 132.792969 322.160156 145.328125 292.296875 C 157.710938 262.664062 181.195312 221.121094 213.785156 179.121094 C 246.136719 136.953125 280.375 103.703125 305.898438 84.203125 C 331.621094 64.515625 350.734375 58.1875 351.171875 66.199219 C 352.972656 100.324219 312.609375 145.855469 259.933594 214.742188 C 206.652344 283.175781 167.886719 339.410156 139.371094 340.65625 "/>
</g>
</svg>
