<?xml version="1.0" encoding="UTF-8"?>
<svg xmlns="http://www.w3.org/2000/svg" xmlns:xlink="http://www.w3.org/1999/xlink" width="375pt" height="374.999991pt" viewBox="0 0 375 374.999991" version="1.2">
<defs>
<clipPath id="clip1">
  <path d="M 133 14.574219 L 221 14.574219 L 221 360.230469 L 133 360.230469 Z M 133 14.574219 "/>
</clipPath>
</defs>
<g id="surface1">
<path style=" stroke:none;fill-rule:nonzero;fill:rgb(55.688477%,82.348633%,30.198669%);fill-opacity:1;" d="M 149.246094 79.699219 C 145.632812 76.25 140.140625 80.464844 133.851562 83.65625 C 133.832031 70.378906 139.046875 63.164062 132.875 59.75 C 128.949219 57.589844 125.125 61.753906 120.558594 66.023438 C 113.222656 56.753906 112.144531 48.984375 105.664062 50.378906 C 98.75 51.859375 102.363281 65.152344 97.84375 73.792969 C 89.867188 71.058594 85.402344 68.007812 81.875 72.261719 C 77.515625 77.488281 87.523438 85.292969 89.886719 94.367188 C 82.1875 96.773438 77.042969 97.121094 76.730469 102.488281 C 76.296875 109.890625 91.347656 109.597656 98.105469 117.210938 C 101.042969 120.539062 105.386719 117.992188 108.496094 113.828125 C 108.773438 113.988281 109.054688 114.144531 109.3125 114.28125 L 145.980469 343.019531 C 146.988281 347.703125 163.269531 348.191406 167.945312 347.199219 C 172.636719 346.207031 187.300781 339.082031 186.3125 334.394531 L 127.140625 112.347656 C 128.308594 111.320312 129.316406 110.136719 130.132812 108.828125 C 135.777344 110.9375 142.574219 110.414062 143.71875 105.101562 C 146.777344 90.78125 154.632812 84.804688 149.246094 79.699219 "/>
<path style=" stroke:none;fill-rule:nonzero;fill:rgb(55.688477%,82.348633%,30.198669%);fill-opacity:1;" d="M 225.042969 79.699219 C 228.660156 76.25 234.132812 80.464844 240.441406 83.65625 C 240.457031 70.378906 235.246094 63.164062 241.414062 59.75 C 245.339844 57.589844 249.164062 61.753906 253.734375 66.023438 C 261.066406 56.753906 262.144531 48.984375 268.609375 50.378906 C 275.542969 51.859375 271.925781 65.152344 276.429688 73.792969 C 284.421875 71.058594 288.886719 68.007812 292.414062 72.261719 C 296.777344 77.488281 286.765625 85.292969 284.402344 94.367188 C 292.101562 96.773438 297.246094 97.121094 297.558594 102.488281 C 297.992188 109.890625 282.945312 109.597656 276.183594 117.210938 C 273.246094 120.539062 268.886719 117.992188 265.792969 113.828125 C 265.515625 113.988281 265.253906 114.144531 264.976562 114.28125 L 228.3125 343.019531 C 227.304688 347.703125 211.019531 348.191406 206.328125 347.199219 C 201.65625 346.207031 186.988281 339.082031 187.980469 334.394531 L 247.148438 112.347656 C 245.984375 111.320312 244.976562 110.136719 244.175781 108.828125 C 238.511719 110.9375 231.71875 110.414062 230.570312 105.101562 C 227.511719 90.78125 219.675781 84.804688 225.042969 79.699219 "/>
<path style=" stroke:none;fill-rule:nonzero;fill:rgb(34.899902%,57.649231%,26.669312%);fill-opacity:1;" d="M 272.152344 92.277344 C 269.964844 87.574219 263.066406 89.542969 255.765625 90.222656 C 260.789062 77.382812 268.554688 72.398438 263.882812 66.753906 C 260.910156 63.164062 255.644531 65.746094 249.613281 68.113281 C 246.019531 56.371094 247.929688 48.445312 241.152344 47.328125 C 233.890625 46.109375 232.34375 60.34375 224.714844 66.980469 C 218.023438 61.300781 214.859375 56.648438 209.839844 59.402344 C 203.652344 62.816406 210.359375 74.160156 209.195312 83.847656 C 200.855469 83.21875 195.746094 81.597656 193.417969 86.667969 C 190.1875 93.671875 204.851562 99.125 208.484375 109.039062 C 210.082031 113.375 215.242188 112.574219 219.832031 109.734375 C 220.023438 109.996094 220.230469 110.242188 220.4375 110.5 L 169.195312 345.5625 C 168.378906 350.476562 183.929688 357.164062 188.832031 357.984375 C 193.730469 358.804688 210.621094 357.496094 211.421875 352.582031 L 238.40625 115.414062 C 239.917969 114.859375 241.34375 114.089844 242.613281 113.132812 C 247.285156 117.347656 254.046875 119.421875 257.175781 114.71875 C 265.550781 102.050781 275.402344 99.265625 272.152344 92.277344 "/>
<path style=" stroke:none;fill-rule:nonzero;fill:rgb(46.269226%,63.919067%,36.468506%);fill-opacity:1;" d="M 180.175781 75.621094 C 176.753906 71.71875 170.6875 75.535156 163.878906 78.253906 C 165.109375 64.507812 171.175781 57.554688 165.128906 53.445312 C 161.269531 50.8125 156.925781 54.769531 151.800781 58.742188 C 145.074219 48.460938 144.710938 40.324219 137.882812 41.144531 C 130.566406 42.015625 133.050781 56.128906 127.578125 64.613281 C 119.566406 61.039062 115.238281 57.46875 111.191406 61.511719 C 106.1875 66.511719 115.796875 75.519531 117.375 85.152344 C 109.175781 86.894531 103.839844 86.773438 103.007812 92.296875 C 101.859375 99.910156 117.464844 101.042969 123.71875 109.542969 C 126.449219 113.273438 131.191406 111.058594 134.789062 107.050781 C 135.050781 107.242188 135.328125 107.417969 135.585938 107.59375 L 151.851562 347.671875 C 152.441406 352.617188 169.246094 354.675781 174.183594 354.082031 C 179.117188 353.488281 194.964844 347.53125 194.375 342.582031 L 154.214844 107.277344 C 155.519531 106.339844 156.664062 105.207031 157.621094 103.933594 C 163.269531 106.667969 170.359375 106.773438 172.042969 101.355469 C 176.5625 86.859375 185.25 81.425781 180.175781 75.621094 "/>
<path style=" stroke:none;fill-rule:nonzero;fill:rgb(46.269226%,63.919067%,36.468506%);fill-opacity:1;" d="M 180.175781 75.621094 C 183.582031 71.71875 189.664062 75.535156 196.476562 78.253906 C 195.242188 64.507812 189.179688 57.554688 195.226562 53.445312 C 199.066406 50.8125 203.425781 54.769531 208.554688 58.742188 C 215.277344 48.460938 215.644531 40.324219 222.472656 41.144531 C 229.769531 42.015625 227.304688 56.128906 232.777344 64.613281 C 240.769531 61.039062 245.113281 57.46875 249.164062 61.511719 C 254.167969 66.511719 244.558594 75.519531 242.976562 85.152344 C 251.160156 86.894531 256.515625 86.773438 257.347656 92.296875 C 258.496094 99.910156 242.890625 101.042969 236.632812 109.542969 C 233.90625 113.273438 229.164062 111.058594 225.546875 107.050781 C 225.289062 107.242188 225.027344 107.417969 224.75 107.59375 L 208.5 347.671875 C 207.910156 352.617188 191.105469 354.675781 186.171875 354.082031 C 181.238281 353.488281 165.390625 347.53125 165.980469 342.582031 L 206.136719 107.277344 C 204.835938 106.339844 203.6875 105.207031 202.714844 103.933594 C 197.066406 106.667969 189.996094 106.773438 188.308594 101.355469 C 183.792969 86.859375 175.101562 81.425781 180.175781 75.621094 "/>
<g clip-path="url(#clip1)" clip-rule="nonzero">
<path style=" stroke:none;fill-rule:nonzero;fill:rgb(55.688477%,82.348633%,30.198669%);fill-opacity:1;" d="M 219.746094 57.625 C 216.53125 52.9375 209.40625 56.320312 201.636719 58.375 C 204.765625 43.566406 212.289062 36.769531 206.207031 31.492188 C 202.367188 28.148438 197.101562 31.894531 191.003906 35.535156 C 185.023438 23.460938 185.667969 14.558594 178.125 14.558594 C 170.046875 14.558594 170.933594 30.238281 163.859375 38.792969 C 155.605469 33.84375 151.347656 29.382812 146.414062 33.269531 C 140.296875 38.078125 149.609375 49.140625 150.078125 59.839844 C 140.941406 60.675781 135.117188 59.839844 133.503906 65.746094 C 131.261719 73.898438 148.117188 77.15625 153.832031 87.242188 C 156.320312 91.652344 161.773438 89.855469 166.222656 85.953125 C 166.484375 86.214844 166.761719 86.425781 167.023438 86.667969 L 153.640625 350.351562 C 153.640625 355.824219 171.679688 360.25 177.136719 360.25 C 182.59375 360.25 200.628906 355.824219 200.628906 350.351562 L 187.355469 88.757812 C 188.898438 87.886719 190.289062 86.808594 191.507812 85.535156 C 197.3125 89.246094 205.007812 90.292969 207.546875 84.613281 C 214.355469 69.402344 224.523438 64.613281 219.746094 57.625 "/>
</g>
<path style=" stroke:none;fill-rule:nonzero;fill:rgb(100%,100%,100%);fill-opacity:1;" d="M 175.292969 322.023438 C 175.292969 327.007812 173 331.050781 170.167969 331.050781 C 167.335938 331.050781 165.042969 327.007812 165.042969 322.023438 C 165.042969 317.023438 167.335938 312.984375 170.167969 312.984375 C 173 312.984375 175.292969 317.023438 175.292969 322.023438 "/>
<path style=" stroke:none;fill-rule:nonzero;fill:rgb(100%,100%,100%);fill-opacity:1;" d="M 185.234375 337.460938 C 185.234375 341.015625 183.601562 343.890625 181.585938 343.890625 C 179.585938 343.890625 177.953125 341.015625 177.953125 337.460938 C 177.953125 333.925781 179.585938 331.050781 181.585938 331.050781 C 183.601562 331.050781 185.234375 333.925781 185.234375 337.460938 "/>
<path style=" stroke:none;fill-rule:nonzero;fill:rgb(100%,100%,100%);fill-opacity:1;" d="M 189.230469 317.566406 C 189.230469 320.5625 187.859375 323 186.136719 323 C 184.433594 323 183.0625 320.5625 183.0625 317.566406 C 183.0625 314.566406 184.433594 312.128906 186.136719 312.128906 C 187.859375 312.128906 189.230469 314.566406 189.230469 317.566406 "/>
</g>
</svg>
